<svg width="32" height="32" viewBox="0 0 32 32" fill="none" xmlns="http://www.w3.org/2000/svg">
<g clip-path="url(#clip0_1_145)">
<path d="M6.34806 31.9998H25.6513C26.8 31.9998 27.7562 31.1212 27.7562 30.0416V6.62831C27.7562 5.54842 26.8 4.66064 25.6513 4.66064H22.4692V6.44842C22.4739 6.75874 22.229 7.01554 21.919 7.02586H10.0426C9.72632 7.01825 9.47088 6.76472 9.46056 6.44842V4.66064H6.34806C5.19941 4.66064 4.24316 5.54842 4.24316 6.62831V30.0416C4.24316 31.1212 5.19941 31.9998 6.34806 31.9998ZM10.6432 14.0519C10.6432 13.7446 10.8923 13.4954 11.1997 13.4954H14.0519V10.6433C14.0519 10.3359 14.301 10.0867 14.6084 10.0867H17.391C17.6983 10.0867 17.9475 10.3359 17.9475 10.6433V13.4954H20.7997C21.107 13.4954 21.3562 13.7446 21.3562 14.0519V16.8346C21.3562 17.1419 21.107 17.3911 20.7997 17.3911H17.9475V20.2433C17.9475 20.5506 17.6983 20.7998 17.391 20.7998H14.6084C14.301 20.7998 14.0519 20.5506 14.0519 20.2433V17.3911H11.1997C10.8923 17.3911 10.6432 17.1419 10.6432 16.8346V14.0519ZM10.8698 23.6519H21.1296C21.4372 23.6519 21.6861 23.9011 21.6861 24.2085C21.6861 24.5158 21.4372 24.765 21.1296 24.765H10.8698C10.5622 24.765 10.3133 24.5158 10.3133 24.2085C10.3133 23.9011 10.5622 23.6519 10.8698 23.6519ZM8.78284 26.4346H23.2165C23.5241 26.4346 23.7731 26.6837 23.7731 26.9911C23.7731 27.2984 23.5241 27.5476 23.2165 27.5476H8.78284C8.47523 27.5476 8.22632 27.2984 8.22632 26.9911C8.22632 26.6837 8.47523 26.4346 8.78284 26.4346Z" fill="white"/>
<path d="M21.3568 2.15652H18.7525C18.4905 2.15625 18.2639 1.97337 18.2087 1.71712C17.9935 0.722556 17.0489 1.23676e-06 15.9625 1.23676e-06H15.9557C14.8984 -0.00108572 13.9748 0.714403 13.7117 1.73832C13.6484 1.98424 13.4267 2.15625 13.1726 2.15652H10.5742V5.91304H21.3568V2.15652Z" fill="white"/>
<path d="M15.1655 16.835V19.6872H16.8351V16.835C16.8351 16.5276 17.0843 16.2785 17.3916 16.2785H20.2438V14.6089H17.3916C17.0843 14.6089 16.8351 14.3597 16.8351 14.0524V11.2002H15.1655V14.0524C15.1655 14.3597 14.9163 14.6089 14.609 14.6089H11.7568V16.2785H14.609C14.9163 16.2785 15.1655 16.5276 15.1655 16.835Z" fill="white"/>
</g>
<defs>
<clipPath id="clip0_1_145">
<rect width="32" height="32" fill="white"/>
</clipPath>
</defs>
</svg>
